<svg width="640" height="520" viewBox="0 0 640 520" fill="none" xmlns="http://www.w3.org/2000/svg">
  <defs>
    <linearGradient id="paint0_linear" x1="90" y1="40" x2="550" y2="480" gradientUnits="userSpaceOnUse">
      <stop offset="0" stop-color="#E0F2FF" />
      <stop offset="0.48" stop-color="#E8E7FF" />
      <stop offset="1" stop-color="#CCF0FF" />
    </linearGradient>
    <linearGradient id="paint1_linear" x1="180" y1="120" x2="430" y2="420" gradientUnits="userSpaceOnUse">
      <stop offset="0" stop-color="#5A8CFF" stop-opacity="0.28" />
      <stop offset="1" stop-color="#1E40AF" stop-opacity="0.62" />
    </linearGradient>
    <linearGradient id="paint2_linear" x1="180" y1="300" x2="360" y2="480" gradientUnits="userSpaceOnUse">
      <stop offset="0" stop-color="#FDBA8C" stop-opacity="0.85" />
      <stop offset="1" stop-color="#FB7185" stop-opacity="0.95" />
    </linearGradient>
    <filter id="shadow" x="-40" y="0" width="720" height="520" filterUnits="userSpaceOnUse" color-interpolation-filters="sRGB">
      <feOffset dy="16" />
      <feGaussianBlur stdDeviation="24" result="offset-blur" />
      <feColorMatrix type="matrix" values="0 0 0 0 0.2 0 0 0 0 0.24 0 0 0 0 0.36 0 0 0 0.16 0" />
      <feBlend in="SourceGraphic" in2="offset-blur" mode="normal" />
    </filter>
  </defs>

  <rect x="40" y="24" width="560" height="440" rx="48" fill="url(#paint0_linear)" filter="url(#shadow)" />

  <g transform="translate(90 80)">
    <rect x="0" y="120" width="160" height="200" rx="20" fill="#fff" opacity="0.9" />
    <rect x="200" y="80" width="160" height="240" rx="24" fill="#fff" opacity="0.95" />
    <rect x="120" y="0" width="180" height="120" rx="24" fill="#2463EB" opacity="0.12" />

    <path d="M40 200H120" stroke="#2563EB" stroke-width="8" stroke-linecap="round" />
    <path d="M240 160H320" stroke="#2563EB" stroke-width="8" stroke-linecap="round" />
    <path d="M220 200H300" stroke="#60A5FA" stroke-width="8" stroke-linecap="round" />

    <circle cx="60" cy="170" r="14" fill="#FB7185" />
    <circle cx="220" cy="130" r="18" fill="#FBBF24" />
    <circle cx="310" cy="220" r="14" fill="#34D399" />

    <path d="M40 260L120 260" stroke="#0EA5E9" stroke-width="10" stroke-linecap="round" />
    <path d="M80 140V260" stroke="#2563EB" stroke-width="6" stroke-linecap="round" />

    <path d="M220 240L220 320" stroke="#2563EB" stroke-width="6" stroke-linecap="round" />
    <path d="M280 240L280 320" stroke="#2563EB" stroke-width="6" stroke-linecap="round" />
    <path d="M220 320H280" stroke="#1D4ED8" stroke-width="6" stroke-linecap="round" />

    <ellipse cx="260" cy="344" rx="88" ry="24" fill="url(#paint2_linear)" opacity="0.4" />

    <path d="M120 80C140 40 220 40 240 80L230 120H130L120 80Z" fill="url(#paint1_linear)" opacity="0.8" />
    <path d="M180 76C184 72 192 72 196 76C210 90 226 122 236 160H140C152 130 166 98 180 76Z" fill="#2563EB" opacity="0.45" />
    <path d="M162 198C176 180 204 180 218 198C228 210 232 226 232 240C232 270 206 296 182 296C158 296 132 270 132 240C132 226 136 210 146 198Z" fill="#0EA5E9" opacity="0.36" />
  </g>

  <path d="M0 420Q160 460 320 420T640 420V520H0V420Z" fill="#DBEAFE" />
</svg>
